<?xml version="1.0" encoding="UTF-8" ?>
<!DOCTYPE svg PUBLIC "-//W3C//DTD SVG 1.1//EN" "http://www.w3.org/Graphics/SVG/1.1/DTD/svg11.dtd">
<svg width="240pt" height="240pt" viewBox="0 0 240 240" version="1.1" xmlns="http://www.w3.org/2000/svg">
<path fill="#ffffff" d=" M 0.00 0.00 L 240.00 0.00 L 240.00 240.00 L 0.00 240.00 L 0.00 0.00 Z" />
<path fill="#f6bb42" d=" M 103.48 9.67 C 114.30 8.47 125.24 8.51 136.08 9.45 C 155.79 12.23 174.66 20.41 190.29 32.71 C 203.30 43.54 214.52 56.72 221.70 72.14 C 229.15 87.95 233.09 105.45 232.80 122.94 C 231.96 144.16 225.81 165.39 213.69 182.96 C 193.76 213.28 158.27 232.45 122.02 232.81 C 104.60 232.96 87.07 229.21 71.49 221.35 C 33.71 203.63 7.70 162.92 8.73 121.02 C 7.81 95.89 16.96 70.94 32.37 51.26 C 49.74 29.07 75.66 14.01 103.48 9.67 Z" />
<path fill="#ffffff" d=" M 103.76 17.46 C 110.75 16.03 117.92 16.76 125.00 16.57 C 134.72 16.17 144.25 18.68 153.47 21.50 C 174.31 28.66 193.30 41.98 205.79 60.30 C 214.79 73.14 220.92 87.92 223.62 103.37 C 215.77 102.94 208.02 104.47 200.19 104.63 C 193.48 105.56 186.68 105.05 179.97 105.97 C 167.46 106.94 154.90 107.18 142.42 108.62 C 142.86 105.08 143.19 101.54 143.50 97.99 C 142.65 90.81 140.73 83.61 136.25 77.80 C 130.60 69.77 121.55 64.05 111.84 62.57 C 105.91 62.22 99.73 61.87 94.09 64.10 C 81.41 68.27 71.45 79.70 69.19 92.87 C 67.40 100.36 69.02 108.22 71.91 115.21 C 76.83 125.41 86.29 133.34 97.35 136.01 C 91.52 158.00 85.61 179.97 80.02 202.02 C 84.02 203.70 88.29 204.52 92.51 205.41 C 112.79 210.31 133.09 215.14 153.41 219.88 C 142.24 223.23 130.67 225.10 119.00 225.17 C 101.02 224.60 83.04 219.84 67.57 210.57 C 45.13 197.72 28.23 175.88 20.68 151.22 C 15.43 134.20 14.69 115.89 18.41 98.50 C 22.55 78.97 32.71 60.92 46.59 46.65 C 62.11 31.46 82.29 20.96 103.76 17.46 Z" />
<path fill="#f6bb42" d=" M 99.54 37.37 C 101.89 33.32 105.66 30.40 110.01 28.75 C 108.63 33.12 104.86 38.31 108.32 42.63 C 111.47 46.31 112.44 51.21 111.33 55.89 C 107.64 55.80 103.94 55.74 100.28 56.27 C 98.93 56.32 97.28 56.99 96.27 55.73 C 95.44 49.51 95.52 42.56 99.54 37.37 Z" />
<path fill="#f6bb42" d=" M 70.02 55.07 C 69.93 48.75 69.08 41.71 73.15 36.32 C 73.40 36.54 73.88 36.99 74.13 37.21 C 74.91 40.78 75.43 44.44 77.03 47.77 C 82.35 49.61 86.65 53.46 89.39 58.34 C 85.50 61.26 80.88 63.13 77.40 66.62 C 76.87 66.69 75.81 66.84 75.28 66.91 C 72.67 63.45 69.99 59.61 70.02 55.07 Z" />
<path fill="#f6bb42" d=" M 132.68 41.81 C 136.67 39.87 141.18 39.90 145.50 39.96 C 142.72 42.36 139.32 44.17 137.18 47.25 C 135.99 51.08 137.23 55.25 136.01 59.09 C 135.41 61.24 134.08 63.07 132.87 64.91 C 128.80 62.21 124.53 59.76 119.88 58.18 C 120.03 56.27 120.19 54.37 120.36 52.46 C 123.77 48.20 127.51 43.93 132.68 41.81 Z" />
<path fill="#f6bb42" d=" M 46.34 60.87 C 49.15 63.66 51.46 67.31 55.25 68.87 C 58.61 69.65 62.16 68.62 65.51 69.55 C 67.55 70.27 69.35 71.48 71.19 72.59 C 68.23 76.94 66.12 81.76 63.73 86.42 C 56.16 84.75 50.23 78.63 47.66 71.49 C 46.77 68.02 46.73 64.41 46.34 60.87 Z" />
<path fill="#f6bb42" d=" M 147.91 64.05 C 155.08 63.20 163.48 62.47 169.40 67.44 C 165.30 68.52 160.99 68.93 157.24 71.07 C 155.53 76.16 152.07 81.28 146.48 82.44 C 144.08 78.17 141.50 74.01 138.90 69.87 C 141.29 67.16 144.02 64.19 147.91 64.05 Z" />
<path fill="#f6bb42" d=" M 149.62 89.91 C 154.27 89.81 159.04 89.38 163.60 90.56 C 169.34 92.62 173.10 97.73 177.18 101.98 C 176.85 102.41 176.20 103.29 175.87 103.72 C 172.55 102.06 168.93 99.70 165.07 100.89 C 162.05 102.12 159.58 104.46 156.43 105.40 C 154.30 105.75 152.12 105.65 149.97 105.73 C 150.02 100.46 150.03 95.18 149.62 89.91 Z" />
<path fill="#f6bb42" d=" M 47.12 98.56 C 49.35 97.02 51.47 95.17 54.10 94.37 C 56.78 93.82 59.54 93.97 62.26 93.88 C 62.72 98.94 62.55 104.02 62.84 109.09 C 55.76 112.21 47.92 108.96 42.00 104.83 C 38.66 102.66 36.39 99.31 35.05 95.60 C 39.00 96.88 42.88 98.63 47.12 98.56 Z" />
<path fill="#ffffff" d=" M 201.08 109.71 C 210.20 109.96 219.22 108.17 228.36 108.59 C 228.36 110.55 228.39 112.50 228.42 114.46 C 220.27 114.19 212.07 114.46 204.01 115.86 C 192.94 115.87 181.87 116.33 170.80 116.36 C 169.63 120.23 168.82 124.19 168.01 128.14 C 166.80 134.27 164.92 140.30 164.70 146.58 C 175.13 146.10 185.49 148.11 195.91 147.56 C 197.90 147.72 198.17 145.42 198.46 143.99 C 200.10 134.86 202.09 125.79 203.77 116.67 C 203.01 127.17 199.28 137.21 198.55 147.71 C 207.42 148.42 216.29 148.81 225.19 148.62 C 224.80 149.82 224.43 151.02 224.06 152.23 C 215.38 150.75 206.55 151.76 197.81 150.89 C 194.76 160.95 193.52 171.45 191.09 181.66 C 192.16 171.35 195.52 161.38 196.56 151.11 C 195.29 150.04 193.48 150.55 191.97 150.35 C 182.31 150.14 172.65 149.90 162.99 149.89 C 161.69 159.84 157.79 169.40 157.87 179.51 C 168.82 179.60 179.54 182.93 190.50 182.54 C 196.00 184.65 202.00 184.48 207.74 185.45 C 206.81 186.40 205.93 187.41 205.02 188.38 C 200.48 187.57 195.93 186.54 191.32 186.39 C 189.64 187.17 189.67 189.19 189.21 190.73 C 188.06 196.62 187.15 202.59 185.44 208.36 C 186.65 201.25 188.08 194.18 189.67 187.15 C 189.18 186.74 188.19 185.90 187.70 185.48 C 177.51 184.48 167.28 183.28 157.24 181.20 C 156.14 183.02 155.41 185.04 155.01 187.14 C 153.56 194.19 152.01 201.23 150.39 208.25 C 158.85 210.38 167.39 212.19 175.97 213.79 C 172.62 215.24 169.68 218.26 165.92 218.35 C 138.78 212.56 111.85 205.74 84.70 200.00 C 92.06 171.59 99.51 143.21 106.90 114.81 C 113.29 114.59 119.71 114.76 126.06 113.86 C 142.41 113.31 158.70 111.67 175.06 111.45 C 183.69 110.26 192.44 110.91 201.08 109.71 Z" />
<path fill="#f6bb42" d=" M 56.65 123.23 C 58.96 120.28 61.64 117.29 65.54 116.63 C 67.31 120.32 69.56 123.74 72.03 127.00 C 72.71 127.98 73.69 129.58 72.54 130.60 C 68.66 134.43 63.11 135.88 57.84 136.51 C 53.16 136.82 48.66 135.13 44.28 133.72 C 43.93 132.89 43.57 132.07 43.21 131.25 C 46.42 130.60 49.89 130.54 52.80 128.87 C 54.92 127.70 55.82 125.36 56.65 123.23 Z" />
<path fill="#f6bb42" d=" M 141.13 117.58 C 150.71 117.37 160.31 116.92 169.90 116.95 C 168.43 124.87 166.52 132.70 164.97 140.60 C 164.58 142.77 163.81 144.84 162.81 146.81 C 153.57 145.25 144.13 145.73 134.79 145.60 C 134.91 138.53 137.54 131.87 138.81 124.99 C 139.51 122.52 139.56 119.70 141.13 117.58 Z" />
<path fill="#f6bb42" d=" M 109.20 119.28 C 111.65 118.19 114.39 118.41 117.01 118.38 C 124.65 118.59 132.29 117.93 139.93 117.95 C 138.28 126.90 135.56 135.62 134.07 144.60 C 133.11 144.91 132.16 145.21 131.20 145.52 C 124.21 144.24 117.08 144.61 110.02 144.65 C 107.95 144.63 105.80 144.72 103.86 143.87 C 103.53 138.30 105.62 133.02 106.83 127.67 C 107.60 124.87 107.93 121.91 109.20 119.28 Z" />
<path fill="#f6bb42" d=" M 79.09 135.04 C 83.89 137.27 89.03 139.08 93.10 142.59 C 90.98 146.74 88.87 151.21 84.83 153.85 C 79.81 157.51 73.28 160.88 66.97 158.85 C 69.85 156.42 73.54 154.49 75.15 150.90 C 75.76 147.55 75.10 144.10 75.75 140.76 C 76.16 138.51 77.77 136.80 79.09 135.04 Z" />
<path fill="#f6bb42" d=" M 101.58 146.84 C 112.03 147.00 122.52 146.74 132.94 147.74 C 131.30 156.16 129.16 164.47 127.17 172.81 C 126.96 174.34 125.25 174.91 123.93 174.66 C 114.84 173.99 105.91 171.81 96.80 171.46 C 96.69 162.97 100.31 155.12 101.58 146.84 Z" />
<path fill="#f6bb42" d=" M 133.26 148.00 C 142.48 147.99 151.70 148.53 160.93 148.59 C 161.36 148.98 162.23 149.77 162.66 150.16 C 161.12 158.44 158.97 166.60 157.46 174.89 C 157.08 176.31 156.84 178.85 154.82 178.65 C 145.78 177.89 136.86 175.86 127.79 175.44 C 128.23 166.06 131.88 157.24 133.26 148.00 Z" />
<path fill="#f6bb42" d=" M 94.70 173.88 C 100.18 173.92 105.67 174.15 111.08 175.10 C 116.08 175.91 121.27 175.99 126.03 177.87 C 136.03 178.46 146.12 179.41 155.85 181.83 C 153.88 190.59 151.96 199.37 150.05 208.14 C 140.45 206.49 130.87 204.61 121.42 202.23 C 121.82 194.08 124.97 186.45 125.87 178.39 C 123.62 186.09 122.78 194.27 119.84 201.71 C 109.69 200.48 99.76 197.70 89.73 195.72 C 90.71 188.29 93.29 181.22 94.70 173.88 Z" />
</svg>
