<?xml version="1.0"?>
<svg width="128" height="125" xmlns="http://www.w3.org/2000/svg">
 <!-- Created with Method Draw - http://github.com/duopixel/Method-Draw/ -->

 <g>
  <title>Layer 1</title>
  <metadata>Created by potrace 1.11, written by Peter Selinger 2001-2013</metadata>
  <ellipse stroke="#000" ry="60.000006" rx="59.500004" id="svg_11" cy="61.916737" cx="62.250059" stroke-width="1.5" fill="#fff"/>
  <g id="svg_10">
   <g id="svg_4" fill="#fc6e51" transform="matrix(0.0555556 0 0 -0.0555556 0 133.333)">
    <path id="svg_5" d="m836,2374c-127,-32 -295,-116 -405,-202c-214,-165 -369,-419 -414,-676c-17,-92 -14,-354 5,-444c51,-247 215,-505 423,-663c87,-65 264,-153 374,-184c157,-44 345,-52 515,-20c560,105 961,638 904,1203c-39,393 -267,728 -612,902c-175,87 -280,110 -515,109c-158,0 -192,-3 -275,-25zm495,-58c424,-89 749,-426 825,-856c16,-89 14,-280 -4,-370c-68,-347 -323,-655 -650,-781c-231,-90 -508,-93 -739,-9c-262,96 -466,282 -588,536c-112,233 -134,495 -63,742c116,398 461,696 874,752c85,12 257,5 345,-14z"/>
    <path id="svg_6" d="m997,2129c-94,-11 -208,-42 -277,-75c-75,-35 -158,-114 -190,-180c-32,-66 -43,-175 -24,-244l12,-44l21,35c67,108 198,225 320,283c76,37 198,79 257,90c40,7 46,10 -85,-50c-245,-114 -418,-301 -501,-541c-35,-103 -34,-123 11,-123c20,0 23,6 29,58c8,71 46,155 81,178c19,12 60,20 138,25c241,17 345,54 447,158c95,97 140,212 140,356l0,62l-45,6c-88,13 -261,16 -334,6z"/>
    <path id="svg_7" d="m1229,1409c-130,-12 -186,-44 -338,-190c-68,-66 -94,-84 -174,-118c-52,-22 -116,-55 -142,-72c-60,-38 -132,-117 -155,-169c-11,-24 -26,-41 -40,-44c-29,-8 -38,-36 -25,-82c13,-46 38,-74 66,-74c18,0 24,7 29,40c7,47 56,107 103,126c72,30 169,6 211,-53c11,-16 25,-47 31,-71l12,-42l347,2l346,3l7,31c22,110 140,174 242,130c45,-19 86,-66 101,-117c14,-48 24,-55 50,-36c20,15 20,14 9,262l-8,170l-52,105c-36,74 -50,113 -46,132c5,25 2,27 -68,43c-140,31 -334,41 -506,24zm151,-86c-3,-16 -10,-64 -17,-108l-12,-80l-130,-5c-172,-8 -259,0 -263,22c-4,22 109,141 155,163c42,20 115,32 210,34l63,1l-6,-27zm148,16c118,-25 231,-113 214,-167c-11,-33 -51,-42 -183,-42c-125,0 -125,0 -119,23c3,12 6,61 6,110c0,98 -4,94 82,76z"/>
    <path id="svg_8" d="m576,792c-81,-36 -114,-128 -70,-199c28,-46 72,-66 134,-60c41,4 55,10 83,41c28,30 33,43 33,83c0,57 -26,105 -69,128c-31,15 -84,19 -111,7zm83,-43c63,-32 75,-102 28,-150c-48,-48 -118,-35 -150,29c-16,30 -6,74 22,99c36,34 65,40 100,22z"/>
    <path id="svg_9" d="m1609,780c-46,-28 -66,-72 -60,-134c4,-41 10,-55 41,-83c29,-27 44,-33 81,-33c57,0 100,22 125,63c39,64 14,159 -50,192c-40,21 -99,19 -137,-5zm131,-48c70,-64 13,-175 -81,-157c-35,6 -73,51 -73,87c0,77 97,121 154,70z"/>
   </g>
  </g>
 </g>
</svg>